{"glyphs":{"0":{"ha":854,"x_min":0,"x_max":0,"o":"m 426 793 b 171 671 331 793 239 750 b 69 386 106 594 69 493 b 171 103 69 281 106 179 b 426 -19 239 24 331 -19 b 682 103 524 -19 614 24 b 785 386 747 179 785 281 b 682 671 785 493 747 594 b 426 793 614 750 524 793 z m 675 388 b 425 92 675 225 564 92 b 175 388 288 92 175 225 b 425 685 175 551 288 685 b 675 388 564 685 675 551 z "},"1":{"ha":318,"x_min":0,"x_max":0,"o":"m 119 669 l 122 669 l 122 86 b 176 31 122 56 147 31 b 231 86 207 31 231 56 l 231 779 l 119 779 b 65 725 90 779 65 754 b 119 669 65 694 90 669 z "},"2":{"ha":828,"x_min":0,"x_max":0,"o":"m 697 461 b 764 601 740 496 764 547 b 581 781 764 700 682 781 l 133 781 b 79 726 103 781 79 757 b 133 672 79 697 103 672 l 581 672 b 656 601 622 672 656 640 b 631 547 656 581 647 560 l 57 125 l 57 4 l 675 4 b 729 58 704 4 729 29 b 675 114 729 89 704 114 l 224 114 l 694 460 z "},"3":{"ha":771,"x_min":0,"x_max":0,"o":"m 692 585 b 507 786 692 696 608 786 l 108 786 b 54 731 79 786 54 761 b 108 676 54 701 79 676 l 507 676 b 583 585 549 676 583 636 b 507 492 583 533 549 492 l 264 492 b 210 438 235 492 210 468 b 264 383 210 408 235 383 l 469 383 b 583 249 532 383 583 324 b 469 114 583 175 532 114 l 108 114 b 54 60 79 114 54 90 b 108 6 54 31 79 6 l 469 6 b 692 249 592 6 692 114 b 622 426 692 317 667 381 b 693 586 667 464 693 524 z "},"4":{"ha":889,"x_min":0,"x_max":0,"o":"m 186 356 l 186 725 b 132 781 186 756 163 781 b 78 725 103 781 78 756 l 78 247 l 692 247 l 692 4 l 800 4 l 800 721 b 746 775 800 751 775 775 b 692 721 715 775 692 751 l 692 356 z "},"5":{"ha":890,"x_min":0,"x_max":0,"o":"m 576 481 l 186 481 l 186 668 l 733 668 b 788 722 764 668 788 692 b 733 776 788 753 764 776 l 76 776 l 76 372 l 578 372 b 714 240 651 372 713 314 b 581 106 714 165 654 106 l 167 106 b 113 51 136 106 113 81 b 167 -3 113 21 136 -3 l 581 -3 b 824 240 715 -3 825 106 b 579 481 822 374 713 481 z "},"6":{"ha":832,"x_min":0,"x_max":0,"o":"m 508 515 l 186 514 b 336 658 189 594 254 658 l 631 658 b 685 714 660 658 685 683 b 631 768 685 743 660 768 l 336 768 b 76 508 192 768 76 653 l 76 303 b 381 -1 76 136 214 -1 l 506 -1 b 767 260 649 -1 768 117 b 692 442 767 329 740 393 b 508 518 642 492 578 518 z m 508 108 l 382 108 b 186 304 275 108 186 197 l 186 408 l 508 408 l 508 408 b 615 365 549 408 586 393 b 660 258 644 336 660 299 b 510 108 660 176 592 108 z "},"7":{"ha":657,"x_min":0,"x_max":0,"o":"m 42 764 l 42 697 b 63 676 42 686 51 676 l 386 676 b 240 414 325 597 275 510 b 171 25 194 292 171 161 b 192 4 171 14 181 4 l 258 4 b 279 25 269 4 279 14 b 546 692 279 283 374 519 l 639 786 l 64 786 b 43 765 53 786 43 776 z "},"8":{"ha":957,"x_min":0,"x_max":0,"o":"m 664 775 l 292 775 b 82 564 176 775 82 681 l 82 208 b 292 -1 82 93 176 -1 l 664 -1 b 875 208 781 -1 875 93 l 875 564 b 664 775 875 681 781 775 z m 664 108 l 292 108 b 192 210 236 108 192 154 l 192 369 b 242 349 207 361 224 354 b 513 322 319 326 418 325 b 713 308 589 321 661 319 b 760 286 744 300 756 292 b 764 275 764 282 764 279 l 764 208 b 663 107 764 153 718 107 z m 189 531 l 189 563 b 290 664 189 618 235 664 l 663 664 b 764 563 718 664 764 618 l 764 406 b 736 413 756 408 747 410 b 514 431 675 426 597 428 b 190 531 294 435 190 451 z "},"9":{"ha":832,"x_min":0,"x_max":0,"o":"m 450 767 l 325 767 b 64 506 182 767 64 649 b 140 324 64 436 92 372 b 322 247 189 275 253 247 l 644 249 b 494 104 642 169 575 104 l 200 104 b 146 50 169 104 146 81 b 200 -4 146 19 169 -4 l 494 -4 b 753 254 638 -4 753 111 l 753 460 b 449 764 753 628 617 764 z m 322 656 l 449 656 b 644 460 557 656 644 568 l 644 357 l 322 356 b 322 356 322 356 322 356 b 215 399 282 356 244 371 b 171 506 186 428 171 465 b 321 656 171 588 239 656 z "},"\u0000":{"ha":0,"x_min":0,"x_max":0,"o":""},"\r":{"ha":0,"x_min":0,"x_max":0,"o":""}," ":{"ha":411,"x_min":0,"x_max":0,"o":""},"\n":{"ha":0,"x_min":0,"x_max":0,"o":""},"!":{"ha":304,"x_min":0,"x_max":0,"o":"m 192 119 l 207 119 l 207 764 l 97 764 l 97 119 l 114 119 b 82 60 94 107 82 85 b 153 -11 82 21 114 -11 b 225 60 192 -11 225 21 b 193 119 225 85 213 107 z "},"#":{"ha":760,"x_min":0,"x_max":0,"o":"m 689 414 l 689 524 l 597 524 l 651 750 l 546 775 l 485 524 l 328 524 l 382 750 l 276 775 l 215 524 l 71 524 l 71 414 l 190 414 l 171 336 l 71 336 l 71 226 l 144 226 l 90 1 l 196 -25 l 256 226 l 413 226 l 358 1 l 464 -25 l 524 226 l 688 226 l 688 336 l 550 336 l 569 414 z m 438 336 l 281 336 l 300 414 l 457 414 z "},"$":{"ha":853,"x_min":0,"x_max":0,"o":"m 775 653 l 775 763 l 519 763 l 519 807 l 411 807 l 411 763 l 292 763 b 71 542 169 763 71 664 b 292 322 71 421 169 322 l 411 322 l 411 99 l 81 99 l 81 -10 l 411 -10 l 411 -64 l 519 -64 l 519 -10 l 551 -10 b 771 210 672 -10 771 89 l 771 431 l 519 431 l 519 654 z m 410 431 l 290 431 b 179 542 229 431 179 481 b 290 653 179 603 229 653 l 410 653 z m 663 321 l 663 208 b 551 97 663 147 613 97 l 519 97 l 519 321 z "},"%":{"ha":871,"x_min":0,"x_max":0,"o":"m 831 721 l 751 796 l 56 47 l 136 -26 z m 238 403 b 385 549 319 403 385 468 b 238 696 385 631 319 696 b 92 549 157 696 92 631 b 238 403 92 468 157 403 z m 238 586 b 275 549 258 586 275 569 b 238 511 275 528 258 511 b 200 549 217 511 200 528 b 238 586 200 569 217 586 z m 564 342 b 418 194 483 342 418 275 b 564 47 418 114 483 47 b 711 194 646 47 711 114 b 564 342 711 275 646 342 z m 564 157 b 526 194 543 157 526 174 b 564 232 526 215 543 232 b 603 194 586 232 603 215 b 564 157 603 174 586 157 z "},"&":{"ha":696,"x_min":0,"x_max":0,"o":"m 296 689 l 625 689 l 625 797 l 296 797 b 78 581 175 797 78 700 b 156 414 78 515 107 456 b 78 231 107 369 78 303 b 296 -11 78 97 175 -11 l 551 -11 l 551 364 l 613 364 l 613 472 l 551 472 l 551 540 l 442 540 l 442 472 l 294 472 b 186 581 235 472 186 521 b 294 690 186 642 235 690 z m 296 364 l 442 364 l 442 99 l 296 99 b 186 232 236 99 186 158 b 296 365 186 306 236 365 z "},"(":{"ha":478,"x_min":0,"x_max":0,"o":"m 400 651 l 419 651 l 419 760 l 400 760 b 163 642 310 760 225 718 b 69 369 103 568 69 471 b 163 97 69 267 103 169 b 400 -22 225 19 310 -22 l 419 -22 l 419 86 l 400 86 b 178 369 278 86 178 214 b 400 651 178 525 278 651 z "},")":{"ha":478,"x_min":0,"x_max":0,"o":"m 314 642 b 76 761 251 719 167 761 l 57 761 l 57 653 l 76 653 b 299 369 199 653 299 525 b 76 88 299 214 199 88 l 57 88 l 57 -21 l 76 -21 b 314 97 167 -21 251 21 b 408 369 375 171 408 268 b 314 642 408 472 375 569 z "},"*":{"ha":489,"x_min":0,"x_max":0,"o":"m 433 617 l 372 617 l 429 674 l 353 750 l 242 640 l 150 743 l 69 671 l 118 617 l 57 617 l 57 508 l 108 508 l 58 457 l 135 381 l 238 483 l 329 382 l 410 454 l 361 508 l 435 508 z "},"+":{"ha":458,"x_min":0,"x_max":0,"o":"m 285 467 l 285 617 l 175 617 l 175 467 l 49 467 l 49 358 l 175 358 l 175 208 l 285 208 l 285 358 l 408 358 l 408 467 z "},"-":{"ha":397,"x_min":0,"x_max":0,"o":"m 364 175 l 364 283 l 32 283 l 32 175 z "},"/":{"ha":451,"x_min":0,"x_max":0,"o":"m 403 746 l 300 781 l 46 7 l 149 -28 z "},"<":{"ha":433,"x_min":0,"x_max":0,"o":"m 381 503 l 303 579 l 43 319 l 296 67 l 372 143 l 197 319 z "},">":{"ha":433,"x_min":0,"x_max":0,"o":"m 131 579 l 53 503 l 236 319 l 60 144 l 136 68 l 389 319 z "},"?":{"ha":714,"x_min":0,"x_max":0,"o":"m 465 747 l 103 747 l 103 638 l 465 638 b 550 553 513 638 550 600 b 465 469 550 507 513 469 l 289 469 b 90 269 179 469 90 381 l 90 119 l 104 119 b 74 61 86 108 74 86 b 144 -10 74 22 106 -10 b 215 61 183 -10 215 22 b 185 119 215 86 203 108 l 201 119 l 201 269 b 292 360 201 319 242 360 l 469 360 b 663 553 575 360 663 447 b 469 747 663 660 575 747 z "},"@":{"ha":853,"x_min":0,"x_max":0,"o":"m 682 660 b 426 782 614 739 524 782 b 171 660 331 782 239 739 b 69 375 106 583 69 482 b 171 92 69 269 106 168 b 426 -31 239 13 331 -31 l 447 -31 l 447 78 l 426 78 b 176 375 289 78 176 211 b 426 671 176 538 289 671 b 676 375 564 671 676 538 b 667 293 676 347 674 319 l 535 293 l 536 608 l 450 608 b 274 528 382 608 318 579 b 221 346 231 478 211 411 b 221 342 221 344 221 343 b 314 264 229 297 268 264 l 425 264 l 425 183 l 744 183 l 758 219 l 760 225 b 785 374 776 272 785 322 b 682 658 785 481 747 581 z m 425 372 l 328 372 b 357 456 326 403 336 432 b 425 497 375 476 399 492 z "},"A":{"ha":854,"x_min":0,"x_max":0,"o":"m 825 58 l 589 667 l 589 668 b 450 764 565 725 513 763 b 308 674 388 764 333 731 l 28 63 b 78 -14 11 26 38 -14 l 78 -14 b 126 17 99 -14 118 -3 l 407 628 b 447 653 414 644 429 653 b 486 626 464 653 479 643 l 721 19 b 771 -15 729 -3 749 -15 b 822 58 808 -15 836 24 z m 428 199 b 503 275 469 199 503 232 b 428 350 503 317 469 350 b 353 275 386 350 353 317 b 428 199 353 232 386 199 z "},"B":{"ha":868,"x_min":0,"x_max":0,"o":"m 764 360 b 728 399 753 375 742 388 b 778 540 760 439 778 489 b 557 761 778 663 679 761 l 86 761 l 86 -14 l 617 -14 b 756 56 669 -14 719 11 b 808 208 789 97 808 151 b 764 360 808 267 792 319 z m 557 653 b 668 539 618 653 668 601 b 603 436 668 494 642 454 b 603 436 603 436 603 436 b 194 438 547 436 331 436 l 194 653 z m 617 96 l 194 96 l 194 281 l 194 281 l 194 338 b 475 336 253 338 376 336 b 614 338 553 336 599 336 l 628 338 b 699 210 669 338 699 272 b 671 125 699 178 689 147 b 617 97 656 107 636 97 z "},"C":{"ha":817,"x_min":0,"x_max":0,"o":"m 726 107 l 311 107 b 181 235 239 107 181 164 l 181 539 b 311 667 181 608 239 667 l 726 667 b 781 721 757 667 781 692 b 726 775 781 751 757 775 l 311 775 b 72 540 179 775 72 669 l 72 236 b 311 0 72 106 179 0 l 726 0 b 781 54 757 0 781 25 b 726 108 781 85 757 108 z "},"D":{"ha":865,"x_min":0,"x_max":0,"o":"m 553 775 l 88 775 l 88 1 l 553 1 b 792 222 686 1 792 100 l 792 553 b 553 775 792 675 686 775 z m 683 222 b 553 108 683 160 625 108 l 196 108 l 196 665 l 553 665 b 683 553 625 665 683 614 z "},"E":{"ha":840,"x_min":0,"x_max":0,"o":"m 728 333 b 782 388 758 333 782 358 b 728 442 782 418 758 442 l 181 442 l 181 540 b 313 667 181 610 240 667 l 728 667 b 782 721 758 667 782 692 b 728 775 782 751 758 775 l 313 775 b 74 540 181 775 74 669 l 74 236 b 313 0 74 106 181 0 l 728 0 b 782 54 758 0 782 25 b 728 108 782 85 758 108 l 313 108 b 181 236 240 108 181 165 l 181 333 l 728 333 z "},"F":{"ha":831,"x_min":0,"x_max":0,"o":"m 736 442 l 189 442 l 189 540 b 319 667 189 610 247 667 l 736 667 b 790 721 765 667 790 692 b 736 775 790 751 765 775 l 319 775 b 81 540 188 775 81 669 l 81 56 b 136 1 81 25 106 1 b 190 56 165 1 190 25 l 190 333 l 736 333 b 792 388 767 333 792 358 b 736 442 792 418 767 442 z "},"G":{"ha":854,"x_min":0,"x_max":0,"o":"m 461 388 b 515 333 461 358 486 333 l 669 333 l 669 108 l 311 108 b 181 236 239 108 181 165 l 181 539 b 311 665 181 608 239 665 l 726 665 b 781 719 757 665 781 690 b 726 775 781 750 757 775 l 311 775 b 72 539 179 775 72 669 l 72 236 b 311 0 72 106 179 0 l 778 0 l 778 442 l 515 442 b 461 388 486 442 461 418 z "},"H":{"ha":890,"x_min":0,"x_max":0,"o":"m 747 775 b 693 721 718 775 693 751 l 693 442 l 197 442 l 197 721 b 142 775 197 751 172 775 b 88 721 113 775 88 751 l 88 56 b 142 1 88 25 113 1 b 197 56 172 1 197 25 l 197 333 l 693 333 l 693 56 b 747 1 693 25 718 1 b 803 56 778 1 803 25 l 803 721 b 747 775 803 751 778 775 z "},"I":{"ha":285,"x_min":0,"x_max":0,"o":"m 142 775 b 88 721 113 775 88 751 l 88 56 b 142 1 88 25 113 1 b 197 56 172 1 197 25 l 197 721 b 142 775 197 751 172 775 z "},"J":{"ha":542,"x_min":0,"x_max":0,"o":"m 404 781 b 350 726 375 781 350 757 l 350 211 b 249 110 350 156 304 110 l 69 110 b 15 56 40 110 15 86 b 69 1 15 25 40 1 l 249 1 b 458 210 364 1 458 94 l 458 725 b 403 781 458 756 433 781 z "},"K":{"ha":822,"x_min":0,"x_max":0,"o":"m 469 449 l 767 685 b 733 781 807 717 785 781 b 699 769 721 781 708 776 l 197 369 l 197 725 b 142 781 197 756 172 781 b 88 725 113 781 88 756 l 88 53 b 142 -3 88 22 113 -3 b 197 53 172 -3 197 22 l 197 231 l 385 381 l 681 19 b 722 -1 690 7 706 -1 b 764 88 768 -1 793 53 z "},"L":{"ha":588,"x_min":0,"x_max":0,"o":"m 517 110 l 197 110 l 197 721 b 142 775 197 751 172 775 b 88 721 113 775 88 751 l 88 1 l 517 1 b 571 56 547 1 571 25 b 517 110 571 86 547 110 z "},"M":{"ha":1014,"x_min":0,"x_max":0,"o":"m 853 781 b 793 747 829 781 807 768 l 499 300 l 242 740 b 172 781 228 765 201 781 b 90 699 126 781 90 744 l 90 54 b 144 0 90 25 114 0 b 199 54 175 0 199 25 l 199 599 l 431 203 b 500 164 446 178 472 164 b 565 199 526 164 551 176 l 819 585 l 819 54 b 874 0 819 25 843 0 b 928 54 903 0 928 25 l 928 710 b 856 782 928 750 896 782 z "},"N":{"ha":886,"x_min":0,"x_max":0,"o":"m 742 781 b 688 726 713 781 688 757 l 688 188 l 238 749 b 172 781 221 769 197 781 l 172 781 b 89 697 126 781 89 742 l 89 53 b 142 -3 89 24 113 -1 b 197 53 172 -3 197 22 l 197 621 l 679 22 b 733 -3 692 6 713 -3 b 797 65 769 0 797 31 l 797 725 b 742 781 797 756 772 781 z "},"O":{"ha":943,"x_min":0,"x_max":0,"o":"m 658 776 l 286 776 b 75 567 169 776 75 682 l 75 211 b 286 1 75 96 169 1 l 658 1 b 868 211 774 1 868 96 l 868 567 b 658 776 868 682 774 776 z m 758 211 b 657 110 758 156 713 110 l 285 110 b 183 211 229 110 183 156 l 183 567 b 285 668 183 622 229 668 l 657 668 b 758 567 713 668 758 622 z "},"P":{"ha":786,"x_min":0,"x_max":0,"o":"m 531 781 l 92 781 l 92 781 l 88 781 l 88 56 b 142 1 88 25 113 1 b 197 56 172 1 197 25 l 197 347 l 529 347 b 749 564 649 347 747 443 b 532 781 750 683 653 781 z m 532 449 l 197 449 l 197 679 l 532 679 b 647 564 596 679 647 626 b 532 447 647 500 596 447 z "},"Q":{"ha":947,"x_min":0,"x_max":0,"o":"m 867 567 b 658 775 867 682 774 775 l 286 775 b 76 567 169 775 76 682 l 76 211 b 286 3 76 96 169 3 l 658 3 b 736 18 686 3 713 8 l 779 -19 b 847 -17 799 -37 829 -36 b 843 51 864 3 864 33 l 817 75 b 868 213 849 113 868 160 l 868 568 z m 758 213 b 658 111 758 157 714 111 l 286 111 b 185 213 231 111 185 157 l 185 568 b 286 669 185 624 231 669 l 658 669 b 758 568 714 669 758 624 z "},"R":{"ha":803,"x_min":0,"x_max":0,"o":"m 519 344 l 529 344 b 751 563 650 344 750 442 b 532 782 753 683 653 782 l 89 782 l 89 343 l 90 343 l 90 53 b 142 1 90 25 114 1 b 194 53 171 1 194 25 l 194 343 l 386 343 l 635 19 b 676 -3 644 6 660 -3 b 719 85 721 -3 747 49 z m 196 450 l 196 675 l 531 675 b 643 563 593 675 643 625 b 531 450 643 500 593 450 z "},"S":{"ha":825,"x_min":0,"x_max":0,"o":"m 163 553 b 274 667 161 615 211 667 l 703 667 b 758 721 733 667 758 692 b 703 775 758 751 733 775 l 274 775 b 53 553 151 775 53 675 b 278 333 54 431 156 333 l 647 333 l 647 221 b 536 108 647 158 597 108 l 119 108 b 65 54 90 108 65 85 b 119 0 65 25 90 0 l 536 0 b 757 221 658 0 757 99 l 757 442 l 278 442 b 164 553 217 442 165 492 z "},"T":{"ha":747,"x_min":0,"x_max":0,"o":"m 675 775 l 71 775 b 17 721 42 775 17 751 b 71 667 17 692 42 667 l 324 667 l 324 56 b 378 1 324 25 347 1 b 432 56 408 1 432 25 l 432 667 l 675 667 b 731 721 706 667 731 692 b 675 775 731 751 706 775 z "},"U":{"ha":954,"x_min":0,"x_max":0,"o":"m 818 781 b 764 726 788 781 764 757 l 764 211 b 663 110 764 156 718 110 l 290 110 b 189 211 235 110 189 156 l 189 726 b 135 781 189 757 164 781 b 81 726 104 781 81 757 l 81 211 b 289 3 81 96 174 3 l 661 3 b 869 211 776 3 869 96 l 869 726 b 815 781 869 757 846 781 z "},"V":{"ha":867,"x_min":0,"x_max":0,"o":"m 789 781 b 740 749 768 781 749 768 l 439 125 l 126 750 b 78 781 118 769 99 781 b 29 701 38 781 11 738 l 381 -1 l 499 -1 l 839 703 b 790 781 857 739 831 781 z "},"W":{"ha":1332,"x_min":0,"x_max":0,"o":"m 1254 781 b 1206 749 1233 781 1214 768 l 904 125 l 729 475 l 838 701 b 789 781 856 738 829 781 b 740 749 768 781 749 768 l 439 125 l 126 750 b 78 781 118 769 99 781 b 29 701 38 781 11 738 l 354 51 b 438 -1 369 19 403 -1 b 524 53 475 -1 508 19 l 669 353 l 819 51 b 903 -1 836 19 868 -1 b 989 53 940 -1 974 19 l 1303 703 b 1254 781 1321 739 1294 781 z "},"X":{"ha":818,"x_min":0,"x_max":0,"o":"m 485 385 l 765 689 b 725 781 797 724 774 781 b 686 763 710 781 696 774 l 408 464 l 128 763 b 88 781 118 774 103 781 b 47 689 40 781 15 724 l 335 385 l 63 90 b 103 -1 31 56 54 -1 b 142 17 118 -1 132 6 l 408 306 l 681 17 b 719 -1 690 6 704 -1 l 719 -1 b 760 90 768 -1 792 56 z "},"Y":{"ha":774,"x_min":0,"x_max":0,"o":"m 700 781 b 660 763 685 781 669 774 l 369 449 l 114 758 b 71 779 103 771 88 779 b 29 690 25 779 0 725 l 313 347 l 313 54 b 367 0 313 25 336 0 b 421 54 397 0 421 25 l 421 346 l 739 689 b 699 781 771 724 747 781 z "},"Z":{"ha":810,"x_min":0,"x_max":0,"o":"m 771 781 l 96 781 b 42 725 65 781 42 756 b 96 671 42 696 65 671 l 631 671 l 40 122 l 40 7 l 704 7 b 758 61 735 7 758 31 b 704 115 758 92 735 115 l 193 115 l 771 653 z "},"[":{"ha":411,"x_min":0,"x_max":0,"o":"m 351 658 l 351 768 l 89 768 l 89 -15 l 351 -15 l 351 93 l 197 93 l 197 658 z "},"\\":{"ha":453,"x_min":0,"x_max":0,"o":"m 406 7 l 151 781 l 47 746 l 303 -28 z "},"]":{"ha":411,"x_min":0,"x_max":0,"o":"m 60 768 l 60 658 l 214 658 l 214 93 l 60 93 l 60 -15 l 322 -15 l 322 768 z "},"a":{"ha":856,"x_min":0,"x_max":0,"o":"m 825 58 l 589 665 l 589 667 b 450 763 565 725 513 761 b 308 672 388 764 333 729 l 28 61 b 78 -15 11 25 38 -15 l 78 -15 b 126 15 99 -15 118 -3 l 407 626 b 447 653 414 643 429 653 b 486 625 464 653 479 642 l 721 18 b 771 -17 729 -3 749 -17 b 822 58 808 -17 836 22 z m 428 197 b 503 274 469 197 503 231 b 428 349 503 315 469 349 b 353 274 386 349 353 315 b 428 197 353 231 386 197 z "},"b":{"ha":869,"x_min":0,"x_max":0,"o":"m 765 360 b 729 399 754 375 742 388 b 779 540 761 439 779 489 b 558 761 779 663 681 761 l 86 761 l 86 -14 l 618 -14 b 757 56 671 -14 719 11 b 808 208 790 97 808 151 b 764 360 808 267 793 319 z m 558 653 b 669 539 619 653 669 601 b 603 436 669 494 643 454 b 603 436 603 436 603 436 b 196 438 547 436 331 436 l 196 653 z m 618 96 l 196 96 l 196 281 l 196 281 l 196 338 b 476 336 253 338 378 336 b 615 338 553 336 600 336 l 629 338 b 700 210 671 338 700 272 b 672 125 700 178 690 147 b 618 97 657 107 638 97 z "},"c":{"ha":819,"x_min":0,"x_max":0,"o":"m 728 107 l 313 107 b 181 235 240 107 181 164 l 181 539 b 313 667 181 608 240 667 l 728 667 b 782 721 758 667 782 692 b 728 775 782 751 758 775 l 313 775 b 74 540 181 775 74 669 l 74 236 b 313 0 74 106 181 0 l 728 0 b 782 54 758 0 782 25 b 728 108 782 85 758 108 z "},"d":{"ha":868,"x_min":0,"x_max":0,"o":"m 554 775 l 89 775 l 89 1 l 554 1 b 793 222 686 1 793 100 l 793 553 b 554 775 793 675 686 775 z m 685 222 b 553 108 685 160 625 108 l 197 108 l 197 665 l 553 665 b 685 553 625 665 685 614 z "},"e":{"ha":842,"x_min":0,"x_max":0,"o":"m 729 333 b 783 388 758 333 783 358 b 729 442 783 418 758 442 l 182 442 l 182 540 b 314 667 182 610 242 667 l 729 667 b 783 721 758 667 783 692 b 729 775 783 751 758 775 l 314 775 b 75 540 181 775 75 669 l 75 236 b 314 0 75 106 181 0 l 729 0 b 783 54 758 0 783 25 b 729 108 783 85 758 108 l 314 108 b 182 236 242 108 182 165 l 182 333 l 729 333 z "},"f":{"ha":832,"x_min":0,"x_max":0,"o":"m 736 442 l 190 442 l 190 540 b 321 667 190 610 249 667 l 736 667 b 792 721 767 667 792 692 b 736 775 792 751 767 775 l 321 775 b 82 540 189 775 82 669 l 82 56 b 136 1 82 25 107 1 b 192 56 167 1 192 25 l 192 333 l 738 333 b 792 388 768 333 792 358 b 738 442 792 418 768 442 z "},"g":{"ha":857,"x_min":0,"x_max":0,"o":"m 463 388 b 517 333 463 358 486 333 l 669 333 l 669 108 l 313 108 b 181 236 240 108 181 165 l 181 539 b 313 665 181 608 240 665 l 728 665 b 782 719 758 665 782 690 b 728 775 782 750 758 775 l 313 775 b 74 539 181 775 74 669 l 74 236 b 313 0 74 106 181 0 l 779 0 l 779 442 l 517 442 b 463 388 486 442 463 418 z "},"h":{"ha":890,"x_min":0,"x_max":0,"o":"m 747 775 b 693 721 718 775 693 751 l 693 442 l 197 442 l 197 721 b 142 775 197 751 172 775 b 88 721 113 775 88 751 l 88 56 b 142 1 88 25 113 1 b 197 56 172 1 197 25 l 197 333 l 693 333 l 693 56 b 747 1 693 25 718 1 b 803 56 778 1 803 25 l 803 721 b 747 775 803 751 778 775 z "},"i":{"ha":285,"x_min":0,"x_max":0,"o":"m 142 775 b 88 721 113 775 88 751 l 88 56 b 142 1 88 25 113 1 b 197 56 172 1 197 25 l 197 721 b 142 775 197 751 172 775 z "},"j":{"ha":543,"x_min":0,"x_max":0,"o":"m 406 781 b 351 726 375 781 351 757 l 351 211 b 250 110 351 156 306 110 l 71 110 b 17 56 42 110 17 86 b 71 1 17 25 42 1 l 250 1 b 458 210 365 1 458 94 l 458 725 b 404 781 458 756 435 781 z "},"k":{"ha":825,"x_min":0,"x_max":0,"o":"m 471 449 l 768 685 b 735 781 808 717 786 781 b 700 769 722 781 710 776 l 197 369 l 197 725 b 143 781 197 756 174 781 b 89 725 114 781 89 756 l 89 53 b 143 -3 89 22 114 -3 b 197 53 174 -3 197 22 l 197 231 l 386 381 l 681 19 b 724 -1 692 7 707 -1 b 765 88 769 -1 794 53 z "},"l":{"ha":590,"x_min":0,"x_max":0,"o":"m 518 110 l 197 110 l 197 721 b 143 775 197 751 174 775 b 89 721 114 775 89 751 l 89 1 l 518 1 b 572 56 547 1 572 25 b 518 110 572 86 547 110 z "},"m":{"ha":1017,"x_min":0,"x_max":0,"o":"m 854 781 b 794 747 831 781 808 768 l 500 300 l 243 740 b 174 781 229 765 203 781 b 92 699 128 781 92 744 l 92 54 b 146 0 92 25 115 0 b 200 54 175 0 200 25 l 200 599 l 432 203 b 501 164 447 178 474 164 b 567 199 528 164 553 176 l 819 585 l 819 54 b 875 0 819 25 844 0 b 929 54 904 0 929 25 l 929 710 b 857 782 929 750 897 782 z "},"n":{"ha":888,"x_min":0,"x_max":0,"o":"m 742 781 b 688 726 713 781 688 757 l 688 188 l 238 749 b 172 781 221 769 197 781 l 172 781 b 89 697 126 781 89 742 l 89 53 b 142 -3 89 24 113 -1 b 197 53 172 -3 197 22 l 197 621 l 679 22 b 733 -3 692 6 713 -3 b 797 65 769 0 797 31 l 797 725 b 742 781 797 756 772 781 z "},"o":{"ha":946,"x_min":0,"x_max":0,"o":"m 658 776 l 286 776 b 76 567 171 776 76 682 l 76 211 b 286 1 76 96 171 1 l 658 1 b 869 211 775 1 869 96 l 869 567 b 658 776 869 682 775 776 z m 758 211 b 658 110 758 156 714 110 l 286 110 b 185 211 231 110 185 156 l 185 567 b 286 668 185 622 231 668 l 658 668 b 758 567 714 668 758 622 z "},"p":{"ha":788,"x_min":0,"x_max":0,"o":"m 532 781 l 92 781 l 92 781 l 89 781 l 89 56 b 143 1 89 25 114 1 b 197 56 174 1 197 25 l 197 347 l 531 347 b 750 564 650 347 749 443 b 533 781 751 683 653 781 z m 533 449 l 197 449 l 197 679 l 533 679 b 649 564 597 679 649 626 b 533 447 649 500 597 447 z "},"q":{"ha":949,"x_min":0,"x_max":0,"o":"m 868 567 b 658 775 868 682 775 775 l 286 775 b 78 567 171 775 78 682 l 78 211 b 286 3 78 96 171 3 l 658 3 b 738 18 686 3 714 8 l 781 -19 b 847 -17 800 -37 831 -36 b 844 51 865 3 864 33 l 818 75 b 869 213 850 113 869 160 l 869 568 z m 760 213 b 658 111 760 157 714 111 l 286 111 b 186 213 231 111 186 157 l 186 568 b 286 669 186 624 231 669 l 658 669 b 760 568 714 669 760 624 z "},"r":{"ha":806,"x_min":0,"x_max":0,"o":"m 521 344 l 531 344 b 753 563 651 344 751 442 b 533 782 753 683 654 782 l 90 782 l 90 343 l 92 343 l 92 53 b 143 1 92 25 114 1 b 196 53 172 1 196 25 l 196 343 l 386 343 l 636 19 b 678 -3 646 6 661 -3 b 721 85 722 -3 747 49 z m 197 450 l 197 675 l 532 675 b 644 563 594 675 644 625 b 532 450 644 500 594 450 z "},"s":{"ha":826,"x_min":0,"x_max":0,"o":"m 164 553 b 275 665 163 614 213 665 l 704 665 b 758 719 735 665 758 690 b 704 775 758 750 735 775 l 275 775 b 54 553 153 775 53 675 b 279 332 56 431 157 332 l 649 332 l 649 219 b 536 108 649 158 599 108 l 121 108 b 67 53 92 108 67 83 b 121 -1 67 24 92 -1 l 536 -1 b 758 219 658 -1 758 97 l 758 442 l 279 442 b 165 551 218 442 167 490 z "},"t":{"ha":749,"x_min":0,"x_max":0,"o":"m 676 775 l 72 775 b 18 721 42 775 18 751 b 72 667 18 692 42 667 l 325 667 l 325 56 b 379 1 325 25 349 1 b 433 56 408 1 433 25 l 433 667 l 676 667 b 731 721 707 667 731 692 b 676 775 731 751 707 775 z "},"u":{"ha":957,"x_min":0,"x_max":0,"o":"m 819 781 b 764 726 789 781 764 757 l 764 211 b 664 110 764 156 719 110 l 292 110 b 190 211 236 110 190 156 l 190 726 b 136 781 190 757 165 781 b 81 726 106 781 81 757 l 81 211 b 290 3 81 96 175 3 l 663 3 b 871 211 778 3 871 96 l 871 726 b 817 781 871 757 847 781 z "},"v":{"ha":869,"x_min":0,"x_max":0,"o":"m 790 781 b 742 749 769 781 750 768 l 440 125 l 128 750 b 79 781 119 769 100 781 b 31 701 39 781 13 738 l 382 -1 l 500 -1 l 840 703 b 792 781 858 739 831 781 z "},"w":{"ha":1335,"x_min":0,"x_max":0,"o":"m 1256 781 b 1207 749 1235 781 1215 768 l 906 125 l 731 475 l 839 701 b 790 781 857 738 831 781 b 742 749 769 781 750 768 l 440 125 l 128 750 b 79 781 119 769 100 781 b 31 701 39 781 13 738 l 356 51 b 439 -1 371 19 403 -1 b 525 53 475 -1 508 19 l 669 353 l 821 51 b 904 -1 836 19 869 -1 b 990 53 942 -1 975 19 l 1304 703 b 1256 781 1322 739 1296 781 z "},"x":{"ha":819,"x_min":0,"x_max":0,"o":"m 486 385 l 767 689 b 726 781 799 724 775 781 b 686 763 711 781 697 774 l 410 464 l 129 763 b 89 781 119 774 104 781 b 49 689 42 781 17 724 l 336 385 l 64 90 b 103 -1 31 56 56 -1 b 143 17 119 -1 133 6 l 410 306 l 681 17 b 721 -1 692 6 706 -1 l 721 -1 b 761 90 769 -1 793 56 z "},"y":{"ha":775,"x_min":0,"x_max":0,"o":"m 701 781 b 661 763 686 781 671 774 l 371 449 l 114 758 b 72 779 104 771 89 779 b 31 690 26 779 1 725 l 314 347 l 314 54 b 368 0 314 25 338 0 b 422 54 397 0 422 25 l 422 346 l 740 689 b 700 781 772 724 747 781 z "},"z":{"ha":813,"x_min":0,"x_max":0,"o":"m 772 781 l 97 781 b 42 725 67 781 42 756 b 97 671 42 696 67 671 l 631 671 l 42 122 l 42 7 l 706 7 b 760 61 736 7 760 31 b 706 115 760 92 736 115 l 194 115 l 772 653 z "},"{":{"ha":368,"x_min":0,"x_max":0,"o":"m 233 535 b 288 658 247 642 258 658 l 297 658 l 297 767 l 288 767 b 156 681 228 767 181 736 b 125 547 136 642 131 593 b 83 432 114 443 103 432 l 64 432 l 64 324 l 83 324 b 138 199 114 324 125 307 b 165 72 143 156 149 110 b 289 -11 189 19 233 -11 l 297 -11 l 297 97 l 289 97 b 247 213 269 97 258 108 b 217 347 242 258 236 307 b 194 382 211 360 203 372 b 207 407 199 390 203 397 b 235 535 224 444 229 490 z "},"|":{"ha":281,"x_min":0,"x_max":0,"o":"m 194 19 l 194 733 l 86 733 l 86 19 z "},"}":{"ha":386,"x_min":0,"x_max":0,"o":"m 303 435 b 260 549 282 435 272 446 b 231 683 254 596 249 643 b 97 769 204 739 158 769 l 68 769 l 68 660 l 97 660 b 153 536 128 660 139 643 b 181 408 158 492 164 447 b 192 385 183 400 188 392 b 169 349 183 375 175 363 b 139 214 150 308 144 261 b 97 100 126 111 117 100 l 67 100 l 67 -8 l 97 -8 b 219 75 153 -8 197 21 b 247 201 236 113 242 158 b 303 325 261 308 272 325 l 322 325 l 322 435 z "}," ":{"ha":411,"x_min":0,"x_max":0,"o":""},"¢":{"ha":839,"x_min":0,"x_max":0,"o":"m 567 649 l 782 649 l 782 758 l 567 758 b 308 658 471 758 379 722 b 185 431 242 597 197 518 l 47 431 l 47 321 l 183 321 b 303 86 194 231 236 149 b 567 -17 375 19 469 -17 l 782 -17 l 782 92 l 567 92 b 292 321 431 92 315 189 l 419 321 l 419 431 l 294 431 b 567 649 322 557 436 649 z "},"£":{"ha":861,"x_min":0,"x_max":0,"o":"m 322 653 l 806 653 l 806 763 l 322 763 b 103 542 201 763 103 664 b 133 431 103 503 114 464 l 96 431 l 96 321 l 253 321 b 183 192 239 294 218 253 b 92 36 138 113 92 38 l 40 -47 l 808 -47 l 808 63 l 235 63 b 286 153 250 89 269 121 b 356 281 317 206 340 249 b 374 322 364 297 369 311 l 469 322 l 469 431 l 325 431 b 214 542 264 431 214 481 b 325 654 214 604 264 654 z "},"¥":{"ha":860,"x_min":0,"x_max":0,"o":"m 465 333 l 824 721 l 743 794 l 414 436 l 119 792 l 36 724 l 356 335 l 356 308 l 224 308 l 224 92 l 356 92 l 356 -12 l 464 -12 l 464 92 l 597 92 l 597 308 l 464 308 z "},"§":{"ha":667,"x_min":0,"x_max":0,"o":"m 582 542 l 243 542 b 203 558 228 542 214 547 b 186 599 192 569 186 583 b 242 656 186 631 211 656 l 572 656 l 572 764 l 242 764 b 76 599 151 764 76 690 b 119 489 76 558 92 519 b 76 379 92 458 76 419 b 242 214 76 288 151 214 l 472 214 l 472 157 b 415 100 472 125 447 100 l 94 100 l 94 -8 l 415 -8 b 581 157 507 -8 581 65 l 581 322 l 571 322 b 581 378 578 340 581 358 z m 472 378 b 415 321 472 347 447 321 l 242 321 b 186 378 210 321 186 347 b 242 435 186 408 211 435 l 472 435 z "},"©":{"ha":854,"x_min":0,"x_max":0,"o":"m 251 463 l 251 336 b 381 208 251 265 308 208 l 582 208 l 582 317 l 381 317 b 360 336 369 317 360 325 l 360 463 b 381 482 360 474 369 482 l 582 482 l 582 592 l 381 592 b 251 463 308 592 251 533 z m 683 661 b 428 783 615 740 525 783 b 172 661 331 783 240 740 b 69 376 107 585 69 483 b 172 92 69 269 107 169 b 428 -31 240 14 331 -31 b 683 92 525 -31 615 14 b 786 376 749 169 786 269 b 683 661 786 483 749 585 z m 428 81 b 178 376 290 81 178 214 b 428 674 178 540 290 674 b 678 376 565 674 678 540 b 428 81 678 214 565 81 z "},"­":{"ha":0,"x_min":0,"x_max":0,"o":""},"®":{"ha":854,"x_min":0,"x_max":0,"o":"m 682 660 b 426 782 614 739 524 782 b 171 660 331 782 239 739 b 69 375 106 583 69 482 b 171 92 69 269 106 168 b 426 -31 239 13 331 -31 b 682 92 524 -31 614 13 b 785 375 747 168 785 269 b 682 660 785 482 747 583 z m 221 208 b 176 375 193 256 176 314 b 221 543 176 438 193 496 z m 426 79 b 240 179 353 79 286 118 l 331 179 l 331 292 b 336 299 331 296 331 297 b 397 310 349 304 376 308 b 524 200 460 308 524 275 l 524 181 l 614 181 b 426 81 568 119 501 81 z m 331 411 l 331 485 l 475 485 b 508 458 493 485 508 472 b 407 419 508 436 504 426 b 331 408 381 417 354 414 z m 632 207 b 569 350 631 263 608 313 b 619 456 601 375 619 411 b 475 592 619 531 554 592 l 258 592 b 428 672 303 642 363 672 b 678 375 565 672 678 539 b 633 208 678 314 661 256 z "},"†":{"ha":456,"x_min":0,"x_max":0,"o":"m 286 619 l 286 744 l 176 744 l 176 619 l 53 619 l 53 511 l 176 511 l 176 -3 l 286 -3 l 286 511 l 399 511 l 399 619 z "},"€":{"ha":861,"x_min":0,"x_max":0,"o":"m 411 649 l 804 649 l 804 758 l 411 758 b 201 547 296 758 201 664 l 201 478 l 63 478 l 63 369 l 201 369 l 201 319 l 63 319 l 63 210 l 201 210 l 201 192 b 411 -19 201 75 296 -19 l 804 -19 l 804 90 l 411 90 b 310 192 356 90 310 136 l 310 210 l 435 210 l 435 319 l 310 319 l 310 369 l 435 369 l 435 478 l 310 478 l 310 547 b 411 649 310 603 356 649 z "},"":{"ha":258,"x_min":0,"x_max":0,"o":"m 219 590 l 125 725 l 36 664 l 131 528 z "},"":{"ha":258,"x_min":0,"x_max":0,"o":"m 219 663 l 131 725 l 36 589 l 125 526 z "},"":{"ha":314,"x_min":0,"x_max":0,"o":"m 157 719 l 36 599 l 113 522 l 157 567 l 201 522 l 278 599 z "},"":{"ha":314,"x_min":0,"x_max":0,"o":"m 201 714 l 157 669 l 113 714 l 36 638 l 157 517 l 278 638 z "},"":{"ha":426,"x_min":0,"x_max":0,"o":"m 378 653 b 186 668 300 731 225 690 b 147 653 169 658 156 653 b 124 667 143 653 138 653 l 108 681 l 32 604 l 47 590 b 146 544 76 560 110 544 b 239 575 183 544 215 563 b 301 579 279 597 282 597 l 315 564 l 392 642 z "},"":{"ha":318,"x_min":0,"x_max":0,"o":"m 174 682 l 174 663 b 158 647 174 654 167 647 b 142 664 149 647 142 654 l 142 683 l 33 683 l 33 664 b 157 539 33 594 89 539 b 281 664 225 539 281 594 l 281 683 z "},"":{"ha":307,"x_min":0,"x_max":0,"o":"m 210 683 b 153 646 185 683 163 668 b 94 683 142 668 119 683 b 32 621 60 683 32 656 b 94 558 32 586 60 558 b 153 597 119 558 142 575 b 210 558 163 575 185 558 b 272 621 244 558 272 586 b 210 683 272 656 244 683 z "},"'":{"ha":247,"x_min":0,"x_max":0,"o":"m 219 663 l 131 725 l 36 589 l 125 526 z "},"\"":{"ha":425,"x_min":0,"x_max":0,"o":"m 219 663 l 131 725 l 36 589 l 125 526 z m 399 663 l 310 725 l 215 589 l 304 526 z "},",":{"ha":243,"x_min":0,"x_max":0,"o":"m 203 94 l 114 157 l 19 21 l 108 -42 z "},".":{"ha":289,"x_min":0,"x_max":0,"o":"m 65 114 b 142 38 65 71 99 38 b 219 114 186 38 219 71 b 142 192 219 158 186 192 b 65 114 99 192 65 158 z "},":":{"ha":274,"x_min":0,"x_max":0,"o":"m 65 192 b 142 115 65 149 99 115 b 219 192 186 115 219 149 b 142 269 219 236 186 269 b 65 192 99 269 65 236 z m 65 497 b 142 419 65 453 99 419 b 219 497 186 419 219 453 b 142 575 219 540 186 575 b 65 497 99 575 65 540 z "},";":{"ha":297,"x_min":0,"x_max":0,"o":"m 65 510 b 142 433 65 467 99 433 b 219 510 186 433 219 467 b 142 588 219 553 186 588 b 65 510 99 588 65 553 z m 213 201 l 124 264 l 29 128 l 118 65 z "},"=":{"ha":419,"x_min":0,"x_max":0,"o":"m 364 376 l 364 486 l 32 486 l 32 376 z m 364 142 l 364 251 l 32 251 l 32 142 z "},"^":{"ha":356,"x_min":0,"x_max":0,"o":"m 279 540 l 324 585 l 171 736 l 24 589 l 68 544 l 171 647 z "},"_":{"ha":503,"x_min":0,"x_max":0,"o":"m 481 22 l 481 131 l 25 131 l 25 22 z "},"~":{"ha":428,"x_min":0,"x_max":0,"o":"m 378 342 b 186 356 300 419 225 378 b 147 340 169 347 156 340 b 124 354 143 340 138 340 l 108 369 l 32 292 l 47 278 b 146 232 76 247 110 232 b 239 264 183 232 215 250 b 301 267 279 286 282 286 l 315 253 l 392 329 z "},"`":{"ha":254,"x_min":0,"x_max":0,"o":"m 219 590 l 125 725 l 36 664 l 131 528 z "},"ˇ":{"ha":267,"x_min":0,"x_max":0,"o":"m 164 933 l 119 889 l 75 933 l -1 857 l 119 736 l 240 857 z "},"˘":{"ha":321,"x_min":0,"x_max":0,"o":"m 174 938 l 174 918 b 158 903 174 910 167 903 b 142 919 149 903 142 910 l 142 939 l 33 939 l 33 919 b 157 794 33 850 89 794 b 281 919 225 794 281 850 l 281 939 z "},"˜":{"ha":421,"x_min":0,"x_max":0,"o":"m 378 881 b 186 896 300 958 225 918 b 147 881 169 886 156 881 b 124 894 143 881 138 881 l 108 908 l 32 832 l 47 818 b 146 772 76 788 110 772 b 239 803 183 772 215 790 b 301 807 279 825 282 825 l 315 792 l 392 869 z "},"ˆ":{"ha":268,"x_min":0,"x_max":0,"o":"m 129 946 l 8 825 l 85 749 l 129 793 l 174 749 l 250 825 z "},"¨":{"ha":308,"x_min":0,"x_max":0,"o":"m 210 950 b 153 913 185 950 163 935 b 94 950 142 935 119 950 b 32 888 60 950 32 922 b 94 825 32 853 60 825 b 153 864 119 825 142 842 b 210 825 163 842 185 825 b 272 888 244 825 272 853 b 210 950 272 922 244 950 z "},"Ŕ":{"ha":803,"x_min":0,"x_max":0,"o":"m 519 344 l 529 344 b 751 563 650 344 750 442 b 532 782 753 683 653 782 l 89 782 l 89 343 l 90 343 l 90 53 b 142 1 90 25 114 1 b 194 53 171 1 194 25 l 194 343 l 386 343 l 635 19 b 676 -3 644 6 660 -3 b 719 85 721 -3 747 49 z m 196 450 l 196 675 l 531 675 b 643 563 593 675 643 625 b 531 450 643 500 593 450 z "},"Á":{"ha":854,"x_min":0,"x_max":0,"o":"m 825 58 l 589 667 l 589 668 b 450 764 565 725 513 763 b 308 674 388 764 333 731 l 28 63 b 78 -14 11 26 38 -14 l 78 -14 b 126 17 99 -14 118 -3 l 407 628 b 447 653 414 644 429 653 b 486 626 464 653 479 643 l 721 19 b 771 -15 729 -3 749 -15 b 822 58 808 -15 836 24 z m 428 199 b 503 275 469 199 503 232 b 428 350 503 317 469 350 b 353 275 386 350 353 317 b 428 199 353 232 386 199 z "},"Â":{"ha":854,"x_min":0,"x_max":0,"o":"m 825 58 l 589 667 l 589 668 b 450 764 565 725 513 763 b 308 674 388 764 333 731 l 28 63 b 78 -14 11 26 38 -14 l 78 -14 b 126 17 99 -14 118 -3 l 407 628 b 447 653 414 644 429 653 b 486 626 464 653 479 643 l 721 19 b 771 -15 729 -3 749 -15 b 822 58 808 -15 836 24 z m 428 199 b 503 275 469 199 503 232 b 428 350 503 317 469 350 b 353 275 386 350 353 317 b 428 199 353 232 386 199 z m 429 1069 l 308 949 l 385 872 l 429 917 l 474 872 l 550 949 z "},"Ă":{"ha":854,"x_min":0,"x_max":0,"o":"m 825 58 l 589 667 l 589 668 b 450 764 565 725 513 763 b 308 674 388 764 333 731 l 28 63 b 78 -14 11 26 38 -14 l 78 -14 b 126 17 99 -14 118 -3 l 407 628 b 447 653 414 644 429 653 b 486 626 464 653 479 643 l 721 19 b 771 -15 729 -3 749 -15 b 822 58 808 -15 836 24 z m 428 199 b 503 275 469 199 503 232 b 428 350 503 317 469 350 b 353 275 386 350 353 317 b 428 199 353 232 386 199 z m 442 1024 l 442 1004 b 426 989 442 996 435 989 b 410 1006 417 989 410 996 l 410 1025 l 301 1025 l 301 1006 b 425 881 301 936 357 881 b 549 1006 493 881 549 936 l 549 1025 z "},"Ä":{"ha":854,"x_min":0,"x_max":0,"o":"m 825 58 l 589 667 l 589 668 b 450 764 565 725 513 763 b 308 674 388 764 333 731 l 28 63 b 78 -14 11 26 38 -14 l 78 -14 b 126 17 99 -14 118 -3 l 407 628 b 447 653 414 644 429 653 b 486 626 464 653 479 643 l 721 19 b 771 -15 729 -3 749 -15 b 822 58 808 -15 836 24 z m 428 199 b 503 275 469 199 503 232 b 428 350 503 317 469 350 b 353 275 386 350 353 317 b 428 199 353 232 386 199 z m 476 996 b 419 958 451 996 429 981 b 361 996 408 981 386 996 b 299 933 326 996 299 968 b 361 871 299 899 326 871 b 419 910 386 871 408 888 b 476 871 429 888 451 871 b 539 933 511 871 539 899 b 476 996 539 968 511 996 z "},"Ĺ":{"ha":588,"x_min":0,"x_max":0,"o":"m 517 110 l 197 110 l 197 721 b 142 775 197 751 172 775 b 88 721 113 775 88 751 l 88 1 l 517 1 b 571 56 547 1 571 25 b 517 110 571 86 547 110 z "},"Ć":{"ha":817,"x_min":0,"x_max":0,"o":"m 726 107 l 311 107 b 181 235 239 107 181 164 l 181 539 b 311 667 181 608 239 667 l 726 667 b 781 721 757 667 781 692 b 726 775 781 751 757 775 l 311 775 b 72 540 179 775 72 669 l 72 236 b 311 0 72 106 179 0 l 726 0 b 781 54 757 0 781 25 b 726 108 781 85 757 108 z "},"Ç":{"ha":817,"x_min":0,"x_max":0,"o":"m 726 107 l 311 107 b 181 235 239 107 181 164 l 181 539 b 311 667 181 608 239 667 l 726 667 b 781 721 757 667 781 692 b 726 775 781 751 757 775 l 311 775 b 72 540 179 775 72 669 l 72 236 b 311 0 72 106 179 0 l 726 0 b 781 54 757 0 781 25 b 726 108 781 85 757 108 z "},"Č":{"ha":817,"x_min":0,"x_max":0,"o":"m 726 107 l 311 107 b 181 235 239 107 181 164 l 181 539 b 311 667 181 608 239 667 l 726 667 b 781 721 757 667 781 692 b 726 775 781 751 757 775 l 311 775 b 72 540 179 775 72 669 l 72 236 b 311 0 72 106 179 0 l 726 0 b 781 54 757 0 781 25 b 726 108 781 85 757 108 z m 489 1082 l 444 1038 l 400 1082 l 324 1006 l 444 885 l 565 1006 z "},"É":{"ha":840,"x_min":0,"x_max":0,"o":"m 728 333 b 782 388 758 333 782 358 b 728 442 782 418 758 442 l 181 442 l 181 540 b 313 667 181 610 240 667 l 728 667 b 782 721 758 667 782 692 b 728 775 782 751 758 775 l 313 775 b 74 540 181 775 74 669 l 74 236 b 313 0 74 106 181 0 l 728 0 b 782 54 758 0 782 25 b 728 108 782 85 758 108 l 313 108 b 181 236 240 108 181 165 l 181 333 l 728 333 z "},"Ę":{"ha":840,"x_min":0,"x_max":0,"o":"m 728 333 b 782 388 758 333 782 358 b 728 442 782 418 758 442 l 181 442 l 181 540 b 313 667 181 610 240 667 l 728 667 b 782 721 758 667 782 692 b 728 775 782 751 758 775 l 313 775 b 74 540 181 775 74 669 l 74 236 b 313 0 74 106 181 0 l 728 0 b 782 54 758 0 782 25 b 728 108 782 85 758 108 l 313 108 b 181 236 240 108 181 165 l 181 333 l 728 333 z "},"Ë":{"ha":840,"x_min":0,"x_max":0,"o":"m 728 333 b 782 388 758 333 782 358 b 728 442 782 418 758 442 l 181 442 l 181 540 b 313 667 181 610 240 667 l 728 667 b 782 721 758 667 782 692 b 728 775 782 751 758 775 l 313 775 b 74 540 181 775 74 669 l 74 236 b 313 0 74 106 181 0 l 728 0 b 782 54 758 0 782 25 b 728 108 782 85 758 108 l 313 108 b 181 236 240 108 181 165 l 181 333 l 728 333 z m 507 999 b 450 961 482 999 460 983 b 392 999 439 983 417 999 b 329 936 357 999 329 971 b 392 874 329 901 357 874 b 450 913 417 874 439 890 b 507 874 460 890 482 874 b 569 936 542 874 569 901 b 507 999 569 971 542 999 z "},"Ě":{"ha":840,"x_min":0,"x_max":0,"o":"m 728 333 b 782 388 758 333 782 358 b 728 442 782 418 758 442 l 181 442 l 181 540 b 313 667 181 610 240 667 l 728 667 b 782 721 758 667 782 692 b 728 775 782 751 758 775 l 313 775 b 74 540 181 775 74 669 l 74 236 b 313 0 74 106 181 0 l 728 0 b 782 54 758 0 782 25 b 728 108 782 85 758 108 l 313 108 b 181 236 240 108 181 165 l 181 333 l 728 333 z m 494 1085 l 450 1040 l 406 1085 l 329 1008 l 450 888 l 571 1008 z "},"Í":{"ha":285,"x_min":0,"x_max":0,"o":"m 142 775 b 88 721 113 775 88 751 l 88 56 b 142 1 88 25 113 1 b 197 56 172 1 197 25 l 197 721 b 142 775 197 751 172 775 z "},"Î":{"ha":285,"x_min":0,"x_max":0,"o":"m 142 775 b 88 721 113 775 88 751 l 88 56 b 142 1 88 25 113 1 b 197 56 172 1 197 25 l 197 721 b 142 775 197 751 172 775 z m 143 1089 l 22 968 l 99 892 l 143 936 l 188 892 l 264 968 z "},"Ď":{"ha":865,"x_min":0,"x_max":0,"o":"m 553 775 l 88 775 l 88 1 l 553 1 b 792 222 686 1 792 100 l 792 553 b 553 775 792 675 686 775 z m 683 222 b 553 108 683 160 625 108 l 196 108 l 196 665 l 553 665 b 683 553 625 665 683 614 z m 425 1099 l 381 1054 l 336 1099 l 260 1022 l 381 901 l 501 1022 z "},"Đ":{"ha":865,"x_min":0,"x_max":0,"o":"m 553 775 l 88 775 l 88 1 l 553 1 b 792 222 686 1 792 100 l 792 553 b 553 775 792 675 686 775 z m 683 222 b 553 108 683 160 625 108 l 196 108 l 196 665 l 553 665 b 683 553 625 665 683 614 z "},"Ń":{"ha":886,"x_min":0,"x_max":0,"o":"m 742 781 b 688 726 713 781 688 757 l 688 188 l 238 749 b 172 781 221 769 197 781 l 172 781 b 89 697 126 781 89 742 l 89 53 b 142 -3 89 24 113 -1 b 197 53 172 -3 197 22 l 197 621 l 679 22 b 733 -3 692 6 713 -3 b 797 65 769 0 797 31 l 797 725 b 742 781 797 756 772 781 z "},"Ň":{"ha":886,"x_min":0,"x_max":0,"o":"m 742 781 b 688 726 713 781 688 757 l 688 188 l 238 749 b 172 781 221 769 197 781 l 172 781 b 89 697 126 781 89 742 l 89 53 b 142 -3 89 24 113 -1 b 197 53 172 -3 197 22 l 197 621 l 679 22 b 733 -3 692 6 713 -3 b 797 65 769 0 797 31 l 797 725 b 742 781 797 756 772 781 z m 447 1063 l 403 1018 l 358 1063 l 282 986 l 403 865 l 524 986 z "},"Ó":{"ha":943,"x_min":0,"x_max":0,"o":"m 658 776 l 286 776 b 75 567 169 776 75 682 l 75 211 b 286 1 75 96 169 1 l 658 1 b 868 211 774 1 868 96 l 868 567 b 658 776 868 682 774 776 z m 758 211 b 657 110 758 156 713 110 l 285 110 b 183 211 229 110 183 156 l 183 567 b 285 668 183 622 229 668 l 657 668 b 758 567 713 668 758 622 z "},"Ô":{"ha":943,"x_min":0,"x_max":0,"o":"m 658 776 l 286 776 b 75 567 169 776 75 682 l 75 211 b 286 1 75 96 169 1 l 658 1 b 868 211 774 1 868 96 l 868 567 b 658 776 868 682 774 776 z m 758 211 b 657 110 758 156 713 110 l 285 110 b 183 211 229 110 183 156 l 183 567 b 285 668 183 622 229 668 l 657 668 b 758 567 713 668 758 622 z m 426 1144 l 306 1024 l 382 947 l 426 992 l 471 947 l 547 1024 z "},"Ő":{"ha":943,"x_min":0,"x_max":0,"o":"m 658 776 l 286 776 b 75 567 169 776 75 682 l 75 211 b 286 1 75 96 169 1 l 658 1 b 868 211 774 1 868 96 l 868 567 b 658 776 868 682 774 776 z m 758 211 b 657 110 758 156 713 110 l 285 110 b 183 211 229 110 183 156 l 183 567 b 285 668 183 622 229 668 l 657 668 b 758 567 713 668 758 622 z "},"Ö":{"ha":943,"x_min":0,"x_max":0,"o":"m 658 776 l 286 776 b 75 567 169 776 75 682 l 75 211 b 286 1 75 96 169 1 l 658 1 b 868 211 774 1 868 96 l 868 567 b 658 776 868 682 774 776 z m 758 211 b 657 110 758 156 713 110 l 285 110 b 183 211 229 110 183 156 l 183 567 b 285 668 183 622 229 668 l 657 668 b 758 567 713 668 758 622 z m 474 1071 b 417 1033 449 1071 426 1056 b 358 1071 406 1056 383 1071 b 296 1008 324 1071 296 1043 b 358 946 296 974 324 946 b 417 985 383 946 406 963 b 474 946 426 963 449 946 b 536 1008 508 946 536 974 b 474 1071 536 1043 508 1071 z "},"×":{"ha":1157,"x_min":0,"x_max":0,"o":""},"Ř":{"ha":803,"x_min":0,"x_max":0,"o":"m 519 344 l 529 344 b 751 563 650 344 750 442 b 532 782 753 683 653 782 l 89 782 l 89 343 l 90 343 l 90 53 b 142 1 90 25 114 1 b 194 53 171 1 194 25 l 194 343 l 386 343 l 635 19 b 676 -3 644 6 660 -3 b 719 85 721 -3 747 49 z m 196 450 l 196 675 l 531 675 b 643 563 593 675 643 625 b 531 450 643 500 593 450 z m 439 1110 l 394 1065 l 350 1110 l 274 1033 l 394 913 l 515 1033 z "},"Ů":{"ha":954,"x_min":0,"x_max":0,"o":"m 818 781 b 764 726 788 781 764 757 l 764 211 b 663 110 764 156 718 110 l 290 110 b 189 211 235 110 189 156 l 189 726 b 135 781 189 757 164 781 b 81 726 104 781 81 757 l 81 211 b 289 3 81 96 174 3 l 661 3 b 869 211 776 3 869 96 l 869 726 b 815 781 869 757 846 781 z "},"Ú":{"ha":954,"x_min":0,"x_max":0,"o":"m 818 781 b 764 726 788 781 764 757 l 764 211 b 663 110 764 156 718 110 l 290 110 b 189 211 235 110 189 156 l 189 726 b 135 781 189 757 164 781 b 81 726 104 781 81 757 l 81 211 b 289 3 81 96 174 3 l 661 3 b 869 211 776 3 869 96 l 869 726 b 815 781 869 757 846 781 z "},"Ű":{"ha":954,"x_min":0,"x_max":0,"o":"m 818 781 b 764 726 788 781 764 757 l 764 211 b 663 110 764 156 718 110 l 290 110 b 189 211 235 110 189 156 l 189 726 b 135 781 189 757 164 781 b 81 726 104 781 81 757 l 81 211 b 289 3 81 96 174 3 l 661 3 b 869 211 776 3 869 96 l 869 726 b 815 781 869 757 846 781 z "},"Ü":{"ha":954,"x_min":0,"x_max":0,"o":"m 818 781 b 764 726 788 781 764 757 l 764 211 b 663 110 764 156 718 110 l 290 110 b 189 211 235 110 189 156 l 189 726 b 135 781 189 757 164 781 b 81 726 104 781 81 757 l 81 211 b 289 3 81 96 174 3 l 661 3 b 869 211 776 3 869 96 l 869 726 b 815 781 869 757 846 781 z m 488 1024 b 431 986 463 1024 440 1008 b 372 1024 419 1008 397 1024 b 310 961 338 1024 310 996 b 372 899 310 926 338 899 b 431 938 397 899 419 915 b 488 899 440 915 463 899 b 550 961 522 899 550 926 b 488 1024 550 996 522 1024 z "},"Ý":{"ha":774,"x_min":0,"x_max":0,"o":"m 700 781 b 660 763 685 781 669 774 l 369 449 l 114 758 b 71 779 103 771 88 779 b 29 690 25 779 0 725 l 313 347 l 313 54 b 367 0 313 25 336 0 b 421 54 397 0 421 25 l 421 346 l 739 689 b 699 781 771 724 747 781 z "},"Ţ":{"ha":1157,"x_min":0,"x_max":0,"o":""},"ŕ":{"ha":806,"x_min":0,"x_max":0,"o":"m 521 344 l 531 344 b 753 563 651 344 751 442 b 533 782 753 683 654 782 l 90 782 l 90 343 l 92 343 l 92 53 b 143 1 92 25 114 1 b 196 53 172 1 196 25 l 196 343 l 386 343 l 636 19 b 678 -3 646 6 661 -3 b 721 85 722 -3 747 49 z m 197 450 l 197 675 l 532 675 b 644 563 594 675 644 625 b 532 450 644 500 594 450 z "},"á":{"ha":856,"x_min":0,"x_max":0,"o":"m 825 58 l 589 665 l 589 667 b 450 763 565 725 513 761 b 308 672 388 764 333 729 l 28 61 b 78 -15 11 25 38 -15 l 78 -15 b 126 15 99 -15 118 -3 l 407 626 b 447 653 414 643 429 653 b 486 625 464 653 479 642 l 721 18 b 771 -17 729 -3 749 -17 b 822 58 808 -17 836 22 z m 428 197 b 503 274 469 197 503 231 b 428 349 503 315 469 349 b 353 274 386 349 353 315 b 428 197 353 231 386 197 z "},"â":{"ha":856,"x_min":0,"x_max":0,"o":"m 825 58 l 589 665 l 589 667 b 450 763 565 725 513 761 b 308 672 388 764 333 729 l 28 61 b 78 -15 11 25 38 -15 l 78 -15 b 126 15 99 -15 118 -3 l 407 626 b 447 653 414 643 429 653 b 486 625 464 653 479 642 l 721 18 b 771 -17 729 -3 749 -17 b 822 58 808 -17 836 22 z m 428 197 b 503 274 469 197 503 231 b 428 349 503 315 469 349 b 353 274 386 349 353 315 b 428 197 353 231 386 197 z m 429 1064 l 308 943 l 385 867 l 429 911 l 474 867 l 550 943 z "},"ă":{"ha":856,"x_min":0,"x_max":0,"o":"m 825 58 l 589 665 l 589 667 b 450 763 565 725 513 761 b 308 672 388 764 333 729 l 28 61 b 78 -15 11 25 38 -15 l 78 -15 b 126 15 99 -15 118 -3 l 407 626 b 447 653 414 643 429 653 b 486 625 464 653 479 642 l 721 18 b 771 -17 729 -3 749 -17 b 822 58 808 -17 836 22 z m 428 197 b 503 274 469 197 503 231 b 428 349 503 315 469 349 b 353 274 386 349 353 315 b 428 197 353 231 386 197 z m 442 1018 l 442 999 b 426 983 442 990 435 983 b 410 1000 417 983 410 990 l 410 1019 l 301 1019 l 301 1000 b 425 875 301 931 357 875 b 549 1000 493 875 549 931 l 549 1019 z "},"ä":{"ha":856,"x_min":0,"x_max":0,"o":"m 825 58 l 589 665 l 589 667 b 450 763 565 725 513 761 b 308 672 388 764 333 729 l 28 61 b 78 -15 11 25 38 -15 l 78 -15 b 126 15 99 -15 118 -3 l 407 626 b 447 653 414 643 429 653 b 486 625 464 653 479 642 l 721 18 b 771 -17 729 -3 749 -17 b 822 58 808 -17 836 22 z m 428 197 b 503 274 469 197 503 231 b 428 349 503 315 469 349 b 353 274 386 349 353 315 b 428 197 353 231 386 197 z m 476 990 b 419 953 451 990 429 975 b 361 990 408 975 386 990 b 299 928 326 990 299 963 b 361 865 299 893 326 865 b 419 904 386 865 408 882 b 476 865 429 882 451 865 b 539 928 511 865 539 893 b 476 990 539 963 511 990 z "},"ĺ":{"ha":590,"x_min":0,"x_max":0,"o":"m 518 110 l 197 110 l 197 721 b 143 775 197 751 174 775 b 89 721 114 775 89 751 l 89 1 l 518 1 b 572 56 547 1 572 25 b 518 110 572 86 547 110 z "},"ć":{"ha":819,"x_min":0,"x_max":0,"o":"m 728 107 l 313 107 b 181 235 240 107 181 164 l 181 539 b 313 667 181 608 240 667 l 728 667 b 782 721 758 667 782 692 b 728 775 782 751 758 775 l 313 775 b 74 540 181 775 74 669 l 74 236 b 313 0 74 106 181 0 l 728 0 b 782 54 758 0 782 25 b 728 108 782 85 758 108 z "},"ç":{"ha":819,"x_min":0,"x_max":0,"o":"m 728 107 l 313 107 b 181 235 240 107 181 164 l 181 539 b 313 667 181 608 240 667 l 728 667 b 782 721 758 667 782 692 b 728 775 782 751 758 775 l 313 775 b 74 540 181 775 74 669 l 74 236 b 313 0 74 106 181 0 l 728 0 b 782 54 758 0 782 25 b 728 108 782 85 758 108 z "},"č":{"ha":819,"x_min":0,"x_max":0,"o":"m 728 107 l 313 107 b 181 235 240 107 181 164 l 181 539 b 313 667 181 608 240 667 l 728 667 b 782 721 758 667 782 692 b 728 775 782 751 758 775 l 313 775 b 74 540 181 775 74 669 l 74 236 b 313 0 74 106 181 0 l 728 0 b 782 54 758 0 782 25 b 728 108 782 85 758 108 z m 446 1097 l 401 1053 l 357 1097 l 281 1021 l 401 900 l 522 1021 z "},"é":{"ha":842,"x_min":0,"x_max":0,"o":"m 729 333 b 783 388 758 333 783 358 b 729 442 783 418 758 442 l 182 442 l 182 540 b 314 667 182 610 242 667 l 729 667 b 783 721 758 667 783 692 b 729 775 783 751 758 775 l 314 775 b 75 540 181 775 75 669 l 75 236 b 314 0 75 106 181 0 l 729 0 b 783 54 758 0 783 25 b 729 108 783 85 758 108 l 314 108 b 182 236 242 108 182 165 l 182 333 l 729 333 z "},"ę":{"ha":842,"x_min":0,"x_max":0,"o":"m 729 333 b 783 388 758 333 783 358 b 729 442 783 418 758 442 l 182 442 l 182 540 b 314 667 182 610 242 667 l 729 667 b 783 721 758 667 783 692 b 729 775 783 751 758 775 l 314 775 b 75 540 181 775 75 669 l 75 236 b 314 0 75 106 181 0 l 729 0 b 783 54 758 0 783 25 b 729 108 783 85 758 108 l 314 108 b 182 236 242 108 182 165 l 182 333 l 729 333 z "},"ë":{"ha":842,"x_min":0,"x_max":0,"o":"m 729 333 b 783 388 758 333 783 358 b 729 442 783 418 758 442 l 182 442 l 182 540 b 314 667 182 610 242 667 l 729 667 b 783 721 758 667 783 692 b 729 775 783 751 758 775 l 314 775 b 75 540 181 775 75 669 l 75 236 b 314 0 75 106 181 0 l 729 0 b 783 54 758 0 783 25 b 729 108 783 85 758 108 l 314 108 b 182 236 242 108 182 165 l 182 333 l 729 333 z m 490 1004 b 433 967 465 1004 443 989 b 375 1004 422 989 400 1004 b 313 942 340 1004 313 976 b 375 879 313 907 340 879 b 433 918 400 879 422 896 b 490 879 443 896 465 879 b 553 942 525 879 553 907 b 490 1004 553 976 525 1004 z "},"ě":{"ha":842,"x_min":0,"x_max":0,"o":"m 729 333 b 783 388 758 333 783 358 b 729 442 783 418 758 442 l 182 442 l 182 540 b 314 667 182 610 242 667 l 729 667 b 783 721 758 667 783 692 b 729 775 783 751 758 775 l 314 775 b 75 540 181 775 75 669 l 75 236 b 314 0 75 106 181 0 l 729 0 b 783 54 758 0 783 25 b 729 108 783 85 758 108 l 314 108 b 182 236 242 108 182 165 l 182 333 l 729 333 z m 478 1090 l 433 1046 l 389 1090 l 313 1014 l 433 893 l 554 1014 z "},"í":{"ha":1157,"x_min":0,"x_max":0,"o":""},"î":{"ha":285,"x_min":0,"x_max":0,"o":"m 142 775 b 88 721 113 775 88 751 l 88 56 b 142 1 88 25 113 1 b 197 56 172 1 197 25 l 197 721 b 142 775 197 751 172 775 z m 138 1096 l 17 975 l 93 899 l 138 943 l 182 899 l 258 975 z "},"ď":{"ha":868,"x_min":0,"x_max":0,"o":"m 554 775 l 89 775 l 89 1 l 554 1 b 793 222 686 1 793 100 l 793 553 b 554 775 793 675 686 775 z m 685 222 b 553 108 685 160 625 108 l 197 108 l 197 665 l 553 665 b 685 553 625 665 685 614 z "},"đ":{"ha":868,"x_min":0,"x_max":0,"o":"m 554 775 l 89 775 l 89 1 l 554 1 b 793 222 686 1 793 100 l 793 553 b 554 775 793 675 686 775 z m 685 222 b 553 108 685 160 625 108 l 197 108 l 197 665 l 553 665 b 685 553 625 665 685 614 z m 600 175 l 600 283 l 268 283 l 268 175 z "},"ń":{"ha":888,"x_min":0,"x_max":0,"o":"m 742 781 b 688 726 713 781 688 757 l 688 188 l 238 749 b 172 781 221 769 197 781 l 172 781 b 89 697 126 781 89 742 l 89 53 b 142 -3 89 24 113 -1 b 197 53 172 -3 197 22 l 197 621 l 679 22 b 733 -3 692 6 713 -3 b 797 65 769 0 797 31 l 797 725 b 742 781 797 756 772 781 z "},"ň":{"ha":888,"x_min":0,"x_max":0,"o":"m 742 781 b 688 726 713 781 688 757 l 688 188 l 238 749 b 172 781 221 769 197 781 l 172 781 b 89 697 126 781 89 742 l 89 53 b 142 -3 89 24 113 -1 b 197 53 172 -3 197 22 l 197 621 l 679 22 b 733 -3 692 6 713 -3 b 797 65 769 0 797 31 l 797 725 b 742 781 797 756 772 781 z m 499 1036 l 454 992 l 410 1036 l 333 960 l 454 839 l 575 960 z "},"ó":{"ha":946,"x_min":0,"x_max":0,"o":"m 658 776 l 286 776 b 76 567 171 776 76 682 l 76 211 b 286 1 76 96 171 1 l 658 1 b 869 211 775 1 869 96 l 869 567 b 658 776 869 682 775 776 z m 758 211 b 658 110 758 156 714 110 l 286 110 b 185 211 231 110 185 156 l 185 567 b 286 668 185 622 231 668 l 658 668 b 758 567 714 668 758 622 z "},"ô":{"ha":946,"x_min":0,"x_max":0,"o":"m 658 776 l 286 776 b 76 567 171 776 76 682 l 76 211 b 286 1 76 96 171 1 l 658 1 b 869 211 775 1 869 96 l 869 567 b 658 776 869 682 775 776 z m 758 211 b 658 110 758 156 714 110 l 286 110 b 185 211 231 110 185 156 l 185 567 b 286 668 185 622 231 668 l 658 668 b 758 567 714 668 758 622 z m 472 1099 l 351 978 l 428 901 l 472 946 l 517 901 l 593 978 z "},"ő":{"ha":946,"x_min":0,"x_max":0,"o":"m 658 776 l 286 776 b 76 567 171 776 76 682 l 76 211 b 286 1 76 96 171 1 l 658 1 b 869 211 775 1 869 96 l 869 567 b 658 776 869 682 775 776 z m 758 211 b 658 110 758 156 714 110 l 286 110 b 185 211 231 110 185 156 l 185 567 b 286 668 185 622 231 668 l 658 668 b 758 567 714 668 758 622 z "},"ö":{"ha":946,"x_min":0,"x_max":0,"o":"m 658 776 l 286 776 b 76 567 171 776 76 682 l 76 211 b 286 1 76 96 171 1 l 658 1 b 869 211 775 1 869 96 l 869 567 b 658 776 869 682 775 776 z m 758 211 b 658 110 758 156 714 110 l 286 110 b 185 211 231 110 185 156 l 185 567 b 286 668 185 622 231 668 l 658 668 b 758 567 714 668 758 622 z m 519 1025 b 463 988 494 1025 472 1010 b 404 1025 451 1010 429 1025 b 342 963 369 1025 342 997 b 404 900 342 928 369 900 b 463 939 429 900 451 917 b 519 900 472 917 494 900 b 582 963 554 900 582 928 b 519 1025 582 997 554 1025 z "},"÷":{"ha":274,"x_min":0,"x_max":0,"o":"m 65 192 b 142 115 65 149 99 115 b 219 192 186 115 219 149 b 142 269 219 236 186 269 b 65 192 99 269 65 236 z m 65 497 b 142 419 65 453 99 419 b 219 497 186 419 219 453 b 142 575 219 540 186 575 b 65 497 99 575 65 540 z "},"ř":{"ha":806,"x_min":0,"x_max":0,"o":"m 521 344 l 531 344 b 753 563 651 344 751 442 b 533 782 753 683 654 782 l 90 782 l 90 343 l 92 343 l 92 53 b 143 1 92 25 114 1 b 196 53 172 1 196 25 l 196 343 l 386 343 l 636 19 b 678 -3 646 6 661 -3 b 721 85 722 -3 747 49 z m 197 450 l 197 675 l 532 675 b 644 563 594 675 644 625 b 532 450 644 500 594 450 z m 426 1103 l 382 1058 l 338 1103 l 261 1026 l 382 906 l 503 1026 z "},"ů":{"ha":957,"x_min":0,"x_max":0,"o":"m 819 781 b 764 726 789 781 764 757 l 764 211 b 664 110 764 156 719 110 l 292 110 b 190 211 236 110 190 156 l 190 726 b 136 781 190 757 165 781 b 81 726 106 781 81 757 l 81 211 b 290 3 81 96 175 3 l 663 3 b 871 211 778 3 871 96 l 871 726 b 817 781 871 757 847 781 z "},"ú":{"ha":957,"x_min":0,"x_max":0,"o":"m 819 781 b 764 726 789 781 764 757 l 764 211 b 664 110 764 156 719 110 l 292 110 b 190 211 236 110 190 156 l 190 726 b 136 781 190 757 165 781 b 81 726 106 781 81 757 l 81 211 b 290 3 81 96 175 3 l 663 3 b 871 211 778 3 871 96 l 871 726 b 817 781 871 757 847 781 z "},"ű":{"ha":957,"x_min":0,"x_max":0,"o":"m 819 781 b 764 726 789 781 764 757 l 764 211 b 664 110 764 156 719 110 l 292 110 b 190 211 236 110 190 156 l 190 726 b 136 781 190 757 165 781 b 81 726 106 781 81 757 l 81 211 b 290 3 81 96 175 3 l 663 3 b 871 211 778 3 871 96 l 871 726 b 817 781 871 757 847 781 z "},"ü":{"ha":957,"x_min":0,"x_max":0,"o":"m 819 781 b 764 726 789 781 764 757 l 764 211 b 664 110 764 156 719 110 l 292 110 b 190 211 236 110 190 156 l 190 726 b 136 781 190 757 165 781 b 81 726 106 781 81 757 l 81 211 b 290 3 81 96 175 3 l 663 3 b 871 211 778 3 871 96 l 871 726 b 817 781 871 757 847 781 z m 519 953 b 463 915 494 953 472 938 b 404 953 451 938 429 953 b 342 890 369 953 342 925 b 404 828 342 856 369 828 b 463 867 429 828 451 844 b 519 828 472 844 494 828 b 582 890 554 828 582 856 b 519 953 582 925 554 953 z "},"ý":{"ha":775,"x_min":0,"x_max":0,"o":"m 701 781 b 661 763 686 781 671 774 l 371 449 l 114 758 b 72 779 104 771 89 779 b 31 690 26 779 1 725 l 314 347 l 314 54 b 368 0 314 25 338 0 b 422 54 397 0 422 25 l 422 346 l 740 689 b 700 781 772 724 747 781 z "},"ţ":{"ha":1157,"x_min":0,"x_max":0,"o":""},"À":{"ha":854,"x_min":0,"x_max":0,"o":"m 825 58 l 589 667 l 589 668 b 450 764 565 725 513 763 b 308 674 388 764 333 731 l 28 63 b 78 -14 11 26 38 -14 l 78 -14 b 126 17 99 -14 118 -3 l 407 628 b 447 653 414 644 429 653 b 486 626 464 653 479 643 l 721 19 b 771 -15 729 -3 749 -15 b 822 58 808 -15 836 24 z m 428 199 b 503 275 469 199 503 232 b 428 350 503 317 469 350 b 353 275 386 350 353 317 b 428 199 353 232 386 199 z m 518 585 l 424 719 l 335 658 l 429 522 z "},"Ã":{"ha":854,"x_min":0,"x_max":0,"o":"m 825 58 l 589 667 l 589 668 b 450 764 565 725 513 763 b 308 674 388 764 333 731 l 28 63 b 78 -14 11 26 38 -14 l 78 -14 b 126 17 99 -14 118 -3 l 407 628 b 447 653 414 644 429 653 b 486 626 464 653 479 643 l 721 19 b 771 -15 729 -3 749 -15 b 822 58 808 -15 836 24 z m 428 199 b 503 275 469 199 503 232 b 428 350 503 317 469 350 b 353 275 386 350 353 317 b 428 199 353 232 386 199 z m 608 997 b 417 1013 531 1075 456 1035 b 378 997 400 1003 386 997 b 354 1011 374 997 368 997 l 339 1025 l 263 949 l 278 935 b 376 889 307 904 340 889 b 469 919 414 889 446 907 b 532 924 510 942 513 942 l 546 908 l 622 986 z "},"Å":{"ha":854,"x_min":0,"x_max":0,"o":"m 825 58 l 589 667 l 589 668 b 450 764 565 725 513 763 b 308 674 388 764 333 731 l 28 63 b 78 -14 11 26 38 -14 l 78 -14 b 126 17 99 -14 118 -3 l 407 628 b 447 653 414 644 429 653 b 486 626 464 653 479 643 l 721 19 b 771 -15 729 -3 749 -15 b 822 58 808 -15 836 24 z m 428 199 b 503 275 469 199 503 232 b 428 350 503 317 469 350 b 353 275 386 350 353 317 b 428 199 353 232 386 199 z "},"Æ":{"ha":1694,"x_min":0,"x_max":0,"o":"m 825 58 l 589 667 l 589 668 b 450 764 565 725 513 763 b 308 674 388 764 333 731 l 28 63 b 78 -14 11 26 38 -14 l 78 -14 b 126 17 99 -14 118 -3 l 407 628 b 447 653 414 644 429 653 b 486 626 464 653 479 643 l 721 19 b 771 -15 729 -3 749 -15 b 822 58 808 -15 836 24 z m 428 199 b 503 275 469 199 503 232 b 428 350 503 317 469 350 b 353 275 386 350 353 317 b 428 199 353 232 386 199 z m 1582 333 b 1636 388 1613 333 1636 358 b 1582 442 1636 418 1613 442 l 1035 442 l 1035 540 b 1167 667 1035 610 1094 667 l 1582 667 b 1636 721 1613 667 1636 692 b 1582 775 1636 751 1613 775 l 1167 775 b 928 540 1035 775 928 669 l 928 236 b 1167 0 928 106 1035 0 l 1582 0 b 1636 54 1613 0 1636 25 b 1582 108 1636 85 1613 108 l 1167 108 b 1035 236 1094 108 1035 165 l 1035 333 l 1582 333 z "},"È":{"ha":840,"x_min":0,"x_max":0,"o":"m 728 333 b 782 388 758 333 782 358 b 728 442 782 418 758 442 l 181 442 l 181 540 b 313 667 181 610 240 667 l 728 667 b 782 721 758 667 782 692 b 728 775 782 751 758 775 l 313 775 b 74 540 181 775 74 669 l 74 236 b 313 0 74 106 181 0 l 728 0 b 782 54 758 0 782 25 b 728 108 782 85 758 108 l 313 108 b 181 236 240 108 181 165 l 181 333 l 728 333 z m 511 585 l 417 719 l 328 658 l 422 522 z "},"Ê":{"ha":840,"x_min":0,"x_max":0,"o":"m 728 333 b 782 388 758 333 782 358 b 728 442 782 418 758 442 l 181 442 l 181 540 b 313 667 181 610 240 667 l 728 667 b 782 721 758 667 782 692 b 728 775 782 751 758 775 l 313 775 b 74 540 181 775 74 669 l 74 236 b 313 0 74 106 181 0 l 728 0 b 782 54 758 0 782 25 b 728 108 782 85 758 108 l 313 108 b 181 236 240 108 181 165 l 181 333 l 728 333 z m 460 1072 l 339 951 l 415 875 l 460 919 l 504 875 l 581 951 z "},"Ì":{"ha":285,"x_min":0,"x_max":0,"o":"m 142 775 b 88 721 113 775 88 751 l 88 56 b 142 1 88 25 113 1 b 197 56 172 1 197 25 l 197 721 b 142 775 197 751 172 775 z m 233 585 l 139 719 l 50 658 l 144 522 z "},"Ï":{"ha":285,"x_min":0,"x_max":0,"o":"m 142 775 b 88 721 113 775 88 751 l 88 56 b 142 1 88 25 113 1 b 197 56 172 1 197 25 l 197 721 b 142 775 197 751 172 775 z m 190 1015 b 133 978 165 1015 143 1000 b 75 1015 122 1000 100 1015 b 13 953 40 1015 13 988 b 75 890 13 918 40 890 b 133 929 100 890 122 907 b 190 890 143 907 165 890 b 253 953 225 890 253 918 b 190 1015 253 988 225 1015 z "},"Ð":{"ha":865,"x_min":0,"x_max":0,"o":"m 553 775 l 88 775 l 88 1 l 553 1 b 792 222 686 1 792 100 l 792 553 b 553 775 792 675 686 775 z m 683 222 b 553 108 683 160 625 108 l 196 108 l 196 665 l 553 665 b 683 553 625 665 683 614 z m 599 175 l 599 283 l 267 283 l 267 175 z "},"Ñ":{"ha":886,"x_min":0,"x_max":0,"o":"m 742 781 b 688 726 713 781 688 757 l 688 188 l 238 749 b 172 781 221 769 197 781 l 172 781 b 89 697 126 781 89 742 l 89 53 b 142 -3 89 24 113 -1 b 197 53 172 -3 197 22 l 197 621 l 679 22 b 733 -3 692 6 713 -3 b 797 65 769 0 797 31 l 797 725 b 742 781 797 756 772 781 z m 592 978 b 400 993 514 1056 439 1015 b 361 978 383 983 369 978 b 338 992 357 978 351 978 l 322 1006 l 246 929 l 261 915 b 360 869 290 885 324 869 b 453 900 397 869 429 888 b 515 904 493 922 496 922 l 529 889 l 606 967 z "},"Ò":{"ha":943,"x_min":0,"x_max":0,"o":"m 658 776 l 286 776 b 75 567 169 776 75 682 l 75 211 b 286 1 75 96 169 1 l 658 1 b 868 211 774 1 868 96 l 868 567 b 658 776 868 682 774 776 z m 758 211 b 657 110 758 156 713 110 l 285 110 b 183 211 229 110 183 156 l 183 567 b 285 668 183 622 229 668 l 657 668 b 758 567 713 668 758 622 z m 563 585 l 468 719 l 379 658 l 474 522 z "},"Õ":{"ha":943,"x_min":0,"x_max":0,"o":"m 658 776 l 286 776 b 75 567 169 776 75 682 l 75 211 b 286 1 75 96 169 1 l 658 1 b 868 211 774 1 868 96 l 868 567 b 658 776 868 682 774 776 z m 758 211 b 657 110 758 156 713 110 l 285 110 b 183 211 229 110 183 156 l 183 567 b 285 668 183 622 229 668 l 657 668 b 758 567 713 668 758 622 z m 606 1072 b 414 1088 528 1150 453 1110 b 375 1072 397 1078 383 1072 b 351 1086 371 1072 365 1072 l 336 1100 l 260 1024 l 275 1010 b 374 964 304 979 338 964 b 467 994 411 964 443 982 b 529 999 507 1017 510 1017 l 543 983 l 619 1061 z "},"Ø":{"ha":943,"x_min":0,"x_max":0,"o":"m 658 776 l 286 776 b 75 567 169 776 75 682 l 75 211 b 286 1 75 96 169 1 l 658 1 b 868 211 774 1 868 96 l 868 567 b 658 776 868 682 774 776 z m 758 211 b 657 110 758 156 713 110 l 285 110 b 183 211 229 110 183 156 l 183 567 b 285 668 183 622 229 668 l 657 668 b 758 567 713 668 758 622 z m 650 746 l 547 781 l 293 7 l 396 -28 z "},"Ù":{"ha":954,"x_min":0,"x_max":0,"o":"m 818 781 b 764 726 788 781 764 757 l 764 211 b 663 110 764 156 718 110 l 290 110 b 189 211 235 110 189 156 l 189 726 b 135 781 189 757 164 781 b 81 726 104 781 81 757 l 81 211 b 289 3 81 96 174 3 l 661 3 b 869 211 776 3 869 96 l 869 726 b 815 781 869 757 846 781 z m 568 585 l 474 719 l 385 658 l 479 522 z "},"Û":{"ha":954,"x_min":0,"x_max":0,"o":"m 818 781 b 764 726 788 781 764 757 l 764 211 b 663 110 764 156 718 110 l 290 110 b 189 211 235 110 189 156 l 189 726 b 135 781 189 757 164 781 b 81 726 104 781 81 757 l 81 211 b 289 3 81 96 174 3 l 661 3 b 869 211 776 3 869 96 l 869 726 b 815 781 869 757 846 781 z m 440 1097 l 319 976 l 396 900 l 440 944 l 485 900 l 561 976 z "},"Þ":{"ha":1157,"x_min":0,"x_max":0,"o":""},"ß":{"ha":1157,"x_min":0,"x_max":0,"o":""},"à":{"ha":856,"x_min":0,"x_max":0,"o":"m 825 58 l 589 665 l 589 667 b 450 763 565 725 513 761 b 308 672 388 764 333 729 l 28 61 b 78 -15 11 25 38 -15 l 78 -15 b 126 15 99 -15 118 -3 l 407 626 b 447 653 414 643 429 653 b 486 625 464 653 479 642 l 721 18 b 771 -17 729 -3 749 -17 b 822 58 808 -17 836 22 z m 428 197 b 503 274 469 197 503 231 b 428 349 503 315 469 349 b 353 274 386 349 353 315 b 428 197 353 231 386 197 z m 519 590 l 425 725 l 336 664 l 431 528 z "},"ã":{"ha":856,"x_min":0,"x_max":0,"o":"m 825 58 l 589 665 l 589 667 b 450 763 565 725 513 761 b 308 672 388 764 333 729 l 28 61 b 78 -15 11 25 38 -15 l 78 -15 b 126 15 99 -15 118 -3 l 407 626 b 447 653 414 643 429 653 b 486 625 464 653 479 642 l 721 18 b 771 -17 729 -3 749 -17 b 822 58 808 -17 836 22 z m 428 197 b 503 274 469 197 503 231 b 428 349 503 315 469 349 b 353 274 386 349 353 315 b 428 197 353 231 386 197 z m 608 992 b 417 1007 531 1069 456 1029 b 378 992 400 997 386 992 b 354 1006 374 992 368 992 l 339 1019 l 263 943 l 278 929 b 376 883 307 899 340 883 b 469 914 414 883 446 901 b 532 918 510 936 513 936 l 546 903 l 622 981 z "},"å":{"ha":856,"x_min":0,"x_max":0,"o":"m 825 58 l 589 665 l 589 667 b 450 763 565 725 513 761 b 308 672 388 764 333 729 l 28 61 b 78 -15 11 25 38 -15 l 78 -15 b 126 15 99 -15 118 -3 l 407 626 b 447 653 414 643 429 653 b 486 625 464 653 479 642 l 721 18 b 771 -17 729 -3 749 -17 b 822 58 808 -17 836 22 z m 428 197 b 503 274 469 197 503 231 b 428 349 503 315 469 349 b 353 274 386 349 353 315 b 428 197 353 231 386 197 z "},"æ":{"ha":1697,"x_min":0,"x_max":0,"o":"m 825 58 l 589 665 l 589 667 b 450 763 565 725 513 761 b 308 672 388 764 333 729 l 28 61 b 78 -15 11 25 38 -15 l 78 -15 b 126 15 99 -15 118 -3 l 407 626 b 447 653 414 643 429 653 b 486 625 464 653 479 642 l 721 18 b 771 -17 729 -3 749 -17 b 822 58 808 -17 836 22 z m 428 197 b 503 274 469 197 503 231 b 428 349 503 315 469 349 b 353 274 386 349 353 315 b 428 197 353 231 386 197 z m 1585 333 b 1639 388 1614 333 1639 358 b 1585 442 1639 418 1614 442 l 1038 442 l 1038 540 b 1169 667 1038 610 1097 667 l 1585 667 b 1639 721 1614 667 1639 692 b 1585 775 1639 751 1614 775 l 1169 775 b 931 540 1036 775 931 669 l 931 236 b 1169 0 931 106 1036 0 l 1585 0 b 1639 54 1614 0 1639 25 b 1585 108 1639 85 1614 108 l 1169 108 b 1038 236 1097 108 1038 165 l 1038 333 l 1585 333 z "},"è":{"ha":842,"x_min":0,"x_max":0,"o":"m 729 333 b 783 388 758 333 783 358 b 729 442 783 418 758 442 l 182 442 l 182 540 b 314 667 182 610 242 667 l 729 667 b 783 721 758 667 783 692 b 729 775 783 751 758 775 l 314 775 b 75 540 181 775 75 669 l 75 236 b 314 0 75 106 181 0 l 729 0 b 783 54 758 0 783 25 b 729 108 783 85 758 108 l 314 108 b 182 236 242 108 182 165 l 182 333 l 729 333 z m 513 590 l 418 725 l 329 664 l 424 528 z "},"ê":{"ha":842,"x_min":0,"x_max":0,"o":"m 729 333 b 783 388 758 333 783 358 b 729 442 783 418 758 442 l 182 442 l 182 540 b 314 667 182 610 242 667 l 729 667 b 783 721 758 667 783 692 b 729 775 783 751 758 775 l 314 775 b 75 540 181 775 75 669 l 75 236 b 314 0 75 106 181 0 l 729 0 b 783 54 758 0 783 25 b 729 108 783 85 758 108 l 314 108 b 182 236 242 108 182 165 l 182 333 l 729 333 z m 443 1078 l 322 957 l 399 881 l 443 925 l 488 881 l 564 957 z "},"ì":{"ha":285,"x_min":0,"x_max":0,"o":"m 142 775 b 88 721 113 775 88 751 l 88 56 b 142 1 88 25 113 1 b 197 56 172 1 197 25 l 197 721 b 142 775 197 751 172 775 z m 233 590 l 139 725 l 50 664 l 144 528 z "},"ï":{"ha":285,"x_min":0,"x_max":0,"o":"m 142 775 b 88 721 113 775 88 751 l 88 56 b 142 1 88 25 113 1 b 197 56 172 1 197 25 l 197 721 b 142 775 197 751 172 775 z m 185 1022 b 128 985 160 1022 138 1007 b 69 1022 117 1007 94 1022 b 7 960 35 1022 7 994 b 69 897 7 925 35 897 b 128 936 94 897 117 914 b 185 897 138 914 160 897 b 247 960 219 897 247 925 b 185 1022 247 994 219 1022 z "},"ð":{"ha":832,"x_min":0,"x_max":0,"o":"m 450 767 l 325 767 b 64 506 182 767 64 649 b 140 324 64 436 92 372 b 322 247 189 275 253 247 l 644 249 b 494 104 642 169 575 104 l 200 104 b 146 50 169 104 146 81 b 200 -4 146 19 169 -4 l 494 -4 b 753 254 638 -4 753 111 l 753 460 b 449 764 753 628 617 764 z m 322 656 l 449 656 b 644 460 557 656 644 568 l 644 357 l 322 356 b 322 356 322 356 322 356 b 215 399 282 356 244 371 b 171 506 186 428 171 465 b 321 656 171 588 239 656 z "},"ñ":{"ha":888,"x_min":0,"x_max":0,"o":"m 742 781 b 688 726 713 781 688 757 l 688 188 l 238 749 b 172 781 221 769 197 781 l 172 781 b 89 697 126 781 89 742 l 89 53 b 142 -3 89 24 113 -1 b 197 53 172 -3 197 22 l 197 621 l 679 22 b 733 -3 692 6 713 -3 b 797 65 769 0 797 31 l 797 725 b 742 781 797 756 772 781 z m 643 951 b 451 967 565 1029 490 989 b 413 951 435 957 421 951 b 389 965 408 951 403 951 l 374 979 l 297 903 l 313 889 b 411 843 342 858 375 843 b 504 874 449 843 481 861 b 567 878 544 896 547 896 l 581 863 l 657 940 z "},"ò":{"ha":946,"x_min":0,"x_max":0,"o":"m 658 776 l 286 776 b 76 567 171 776 76 682 l 76 211 b 286 1 76 96 171 1 l 658 1 b 869 211 775 1 869 96 l 869 567 b 658 776 869 682 775 776 z m 758 211 b 658 110 758 156 714 110 l 286 110 b 185 211 231 110 185 156 l 185 567 b 286 668 185 622 231 668 l 658 668 b 758 567 714 668 758 622 z m 564 590 l 469 725 l 381 664 l 475 528 z "},"õ":{"ha":946,"x_min":0,"x_max":0,"o":"m 658 776 l 286 776 b 76 567 171 776 76 682 l 76 211 b 286 1 76 96 171 1 l 658 1 b 869 211 775 1 869 96 l 869 567 b 658 776 869 682 775 776 z m 758 211 b 658 110 758 156 714 110 l 286 110 b 185 211 231 110 185 156 l 185 567 b 286 668 185 622 231 668 l 658 668 b 758 567 714 668 758 622 z m 651 1026 b 460 1042 574 1104 499 1064 b 421 1026 443 1032 429 1026 b 397 1040 417 1026 411 1026 l 382 1054 l 306 978 l 321 964 b 419 918 350 933 383 918 b 513 949 457 918 489 936 b 575 953 553 971 556 971 l 589 938 l 665 1015 z "},"ø":{"ha":946,"x_min":0,"x_max":0,"o":"m 658 776 l 286 776 b 76 567 171 776 76 682 l 76 211 b 286 1 76 96 171 1 l 658 1 b 869 211 775 1 869 96 l 869 567 b 658 776 869 682 775 776 z m 758 211 b 658 110 758 156 714 110 l 286 110 b 185 211 231 110 185 156 l 185 567 b 286 668 185 622 231 668 l 658 668 b 758 567 714 668 758 622 z m 651 746 l 549 781 l 294 7 l 397 -28 z "},"ù":{"ha":957,"x_min":0,"x_max":0,"o":"m 819 781 b 764 726 789 781 764 757 l 764 211 b 664 110 764 156 719 110 l 292 110 b 190 211 236 110 190 156 l 190 726 b 136 781 190 757 165 781 b 81 726 106 781 81 757 l 81 211 b 290 3 81 96 175 3 l 663 3 b 871 211 778 3 871 96 l 871 726 b 817 781 871 757 847 781 z m 569 590 l 475 725 l 386 664 l 481 528 z "},"û":{"ha":957,"x_min":0,"x_max":0,"o":"m 819 781 b 764 726 789 781 764 757 l 764 211 b 664 110 764 156 719 110 l 292 110 b 190 211 236 110 190 156 l 190 726 b 136 781 190 757 165 781 b 81 726 106 781 81 757 l 81 211 b 290 3 81 96 175 3 l 663 3 b 871 211 778 3 871 96 l 871 726 b 817 781 871 757 847 781 z m 472 1026 l 351 906 l 428 829 l 472 874 l 517 829 l 593 906 z "},"þ":{"ha":869,"x_min":0,"x_max":0,"o":"m 765 360 b 729 399 754 375 742 388 b 779 540 761 439 779 489 b 558 761 779 663 681 761 l 86 761 l 86 -14 l 618 -14 b 757 56 671 -14 719 11 b 808 208 790 97 808 151 b 764 360 808 267 793 319 z m 558 653 b 669 539 619 653 669 601 b 603 436 669 494 643 454 b 603 436 603 436 603 436 b 196 438 547 436 331 436 l 196 653 z m 618 96 l 196 96 l 196 281 l 196 281 l 196 338 b 476 336 253 338 378 336 b 615 338 553 336 600 336 l 629 338 b 700 210 671 338 700 272 b 672 125 700 178 690 147 b 618 97 657 107 638 97 z "},"ÿ":{"ha":775,"x_min":0,"x_max":0,"o":"m 701 781 b 661 763 686 781 671 774 l 371 449 l 114 758 b 72 779 104 771 89 779 b 31 690 26 779 1 725 l 314 347 l 314 54 b 368 0 314 25 338 0 b 422 54 397 0 422 25 l 422 346 l 740 689 b 700 781 772 724 747 781 z m 429 976 b 372 939 404 976 382 961 b 314 976 361 961 339 976 b 251 914 279 976 251 949 b 314 851 251 879 279 851 b 372 890 339 851 361 868 b 429 851 382 868 404 851 b 492 914 464 851 492 879 b 429 976 492 949 464 976 z "}}}
